<?xml version="1.0" encoding="UTF-8"?> <svg xmlns="http://www.w3.org/2000/svg" width="13" height="13" viewBox="0 0 13 13" fill="none"> <path d="M6.65896 7.0539L0.879774 12.8331C1.39259 12.8597 2.52431 12.8827 3.88033 12.6883C6.32424 12.3379 8.33217 11.4366 9.68686 10.0818C11.0416 8.72707 11.9429 6.71918 12.2933 4.27527C12.5541 2.45683 12.4239 1.04085 12.4181 0.981473C12.3903 0.690574 12.16 0.460301 11.8691 0.432488C11.8098 0.426785 10.3938 0.296511 8.57533 0.557254C6.13142 0.907684 4.12349 1.80897 2.7688 3.16374C1.41407 4.51847 0.512742 6.52636 0.162312 8.97027C0.0332488 9.87035 6.54105e-06 10.6716 6.51538e-06 11.2587C6.50239e-06 11.556 0.00856139 11.7983 0.0175458 11.9707L5.79666 6.1916C6.03474 5.95347 6.42084 5.95347 6.659 6.1916C6.89705 6.42968 6.89705 6.81578 6.65896 7.0539Z" fill="#69D489"></path> </svg> 