<?xml version="1.0" encoding="UTF-8"?> <!-- Generator: Adobe Illustrator 23.0.2, SVG Export Plug-In . SVG Version: 6.00 Build 0) --> <svg xmlns="http://www.w3.org/2000/svg" xmlns:xlink="http://www.w3.org/1999/xlink" id="Capa_1" x="0px" y="0px" viewBox="0 0 317.7 44" style="enable-background:new 0 0 317.7 44;" xml:space="preserve"> <style type="text/css"> .st0{fill:#FDDD76;} </style> <path class="st0" d="M231.3,29.9h-218c-4.4,0-8-3.6-8-8l0,0c0-4.4,3.6-8,8-8h218c4.4,0,8,3.6,8,8l0,0 C239.3,26.3,235.7,29.9,231.3,29.9z"></path> <path class="st0" d="M296.3,29.9h-35.8c-4.4,0-8-3.6-8-8l0,0c0-4.4,3.6-8,8-8h35.8c4.4,0,8,3.6,8,8l0,0 C304.3,26.3,300.7,29.9,296.3,29.9z"></path> </svg> 