<?xml version="1.0" encoding="UTF-8"?> <svg xmlns="http://www.w3.org/2000/svg" width="81" height="81" viewBox="0 0 81 81" fill="none"> <g clip-path="url(#clip0)"> <path d="M26.9687 38.7539L50.3744 62.1596C50.4823 60.0827 50.5754 55.4992 49.7879 50.0074C48.3687 40.1095 44.7184 31.9774 39.2316 26.491C33.745 21.0043 25.613 17.3539 15.7152 15.9347C8.35056 14.8785 2.61585 15.4061 2.37538 15.4294C1.19724 15.542 0.264636 16.4746 0.151995 17.6528C0.128898 17.8932 -0.39871 23.6278 0.657296 30.9926C2.07654 40.8904 5.72676 49.0225 11.2136 54.509C16.7002 59.9957 24.8322 63.6461 34.73 65.0653C38.3753 65.588 41.6202 65.7226 43.998 65.7226C45.2022 65.7226 46.1836 65.688 46.8819 65.6516L23.4764 42.2462C22.512 41.282 22.512 39.7183 23.4764 38.7537C24.4406 37.7897 26.0043 37.7897 26.9687 38.7539Z" fill="#FCDD76"></path> <path d="M80.8902 32.559C80.7775 31.3809 79.8449 30.4482 78.6668 30.3356C78.0068 30.2726 62.3959 28.8953 53.3054 37.986C52.9515 38.3399 52.6139 38.7042 52.2908 39.0768C53.3551 42.2592 54.157 45.6799 54.6769 49.3064C54.8433 50.4676 54.9729 51.5885 55.0736 52.6595L61.5263 46.2069C62.4905 45.2426 64.0542 45.2426 65.0188 46.2069C65.9833 47.1711 65.9832 48.7348 65.0188 49.6993L55.3869 59.3312C55.3845 61.8486 55.2412 63.4898 55.2098 63.8174C55.1545 64.3969 55.0312 64.9563 54.8502 65.4893C60.3359 64.9821 67.9086 63.2517 73.2398 57.9204C82.3303 48.83 80.9533 33.2193 80.8902 32.559Z" fill="#FCDD76"></path> </g> <defs> <clipPath id="clip0"> <rect width="81" height="81" fill="white"></rect> </clipPath> </defs> </svg> 