<?xml version="1.0" encoding="UTF-8"?> <svg xmlns="http://www.w3.org/2000/svg" width="85" height="85" viewBox="0 0 85 85" fill="none"> <circle cx="42.5" cy="42.5" r="42.5" fill="#69D489"></circle> <path d="M53.3906 63H31.6094C26.3108 63 22 58.6892 22 53.3906V31.6094C22 26.3108 26.3108 22 31.6094 22H53.3906C58.6892 22 63 26.3108 63 31.6094V53.3906C63 58.6892 58.6892 63 53.3906 63ZM31.6094 25.2031C28.077 25.2031 25.2031 28.077 25.2031 31.6094V53.3906C25.2031 56.923 28.077 59.7969 31.6094 59.7969H53.3906C56.923 59.7969 59.7969 56.923 59.7969 53.3906V31.6094C59.7969 28.077 56.923 25.2031 53.3906 25.2031H31.6094ZM53.791 29.207C52.6854 29.207 51.7891 30.1033 51.7891 31.209C51.7891 32.3146 52.6854 33.2109 53.791 33.2109C54.8967 33.2109 55.793 32.3146 55.793 31.209C55.793 30.1033 54.8967 29.207 53.791 29.207ZM42.5 52.9102C36.7598 52.9102 32.0898 48.2402 32.0898 42.5C32.6616 28.6895 52.3405 28.6935 52.9102 42.5001C52.9102 48.2402 48.2402 52.9102 42.5 52.9102ZM42.5 35.293C38.526 35.293 35.293 38.526 35.293 42.5C35.6889 52.0611 49.3126 52.0583 49.707 42.4999C49.707 38.526 46.474 35.293 42.5 35.293Z" fill="white"></path> </svg> 