<?xml version="1.0" encoding="UTF-8"?> <svg xmlns="http://www.w3.org/2000/svg" width="509" height="439" viewBox="0 0 509 439" fill="none"> <path d="M507.93 121.103C507.93 121.048 507.936 120.993 507.936 120.938C507.936 54.145 453.791 0 386.998 0C320.205 0 266.061 54.144 266.061 120.938C266.061 187.732 320.211 241.876 386.999 241.876C400.726 241.876 413.866 239.483 426.161 235.267C398.952 391.357 277.231 492.019 390.065 409.172C515.182 317.304 508.07 124.628 507.93 121.103Z" fill="#FFEDB2"></path> <path d="M120.938 241.875C134.665 241.875 147.805 239.482 160.106 235.266C132.89 391.356 11.169 492.018 124.004 409.171C249.121 317.304 242.01 124.628 241.869 121.103C241.869 121.048 241.875 120.993 241.875 120.938C241.875 54.145 187.731 0 120.938 0C54.144 0 0 54.144 0 120.938C0 187.732 54.15 241.875 120.938 241.875Z" fill="#FFEDB2"></path> </svg> 