<?xml version="1.0" encoding="UTF-8"?> <svg xmlns="http://www.w3.org/2000/svg" viewBox="0 0 650.36 705.09"> <defs> <style>.cls-1{fill:#fff;}.cls-2{fill:#ffda00;}.cls-3,.cls-4,.cls-5{fill:none;stroke-miterlimit:10;}.cls-3{stroke:#ffda00;}.cls-3,.cls-4{stroke-width:7px;}.cls-4{stroke:#0dd37e;}.cls-5{stroke:#000;stroke-width:0.25px;}</style> </defs> <title>Ресурс 1</title> <g id="Слой_2" data-name="Слой 2"> <g id="Слой_1-2" data-name="Слой 1"> <path class="cls-1" d="M326.93,361.62c0-52.33,31.11-128.69,87.65-161.84s104.69-30.49,104.69-30.49-2.12,54.45-26.16,95.46S434.41,330.5,421,336.87,383.5,356,355.22,358.79Z"></path> <path class="cls-2" d="M323.43,365.48v-3.87c0-27.68,8.38-60.37,23-89.67,11.65-23.38,32.63-55.4,66.39-75.19,56.79-33.3,104.64-31.08,106.65-31l3.44.19-.13,3.44c-.09,2.26-2.43,55.8-26.64,97.09-25.72,43.88-61.88,67.95-73.65,73.52L418.41,342c-13.7,6.61-36.62,17.67-62.85,20.29Zm192.1-192.73c-12,.18-52.94,2.92-99.19,30-52.49,30.78-84.36,102-85.86,155l24.38-2.44c25-2.5,46.36-12.81,60.5-19.63l4.11-2c6.51-3.08,18.13-10.61,31.23-22.5A209,209,0,0,0,490.08,263c19.8-33.78,24.48-77.51,25.45-90.22"></path> <path class="cls-1" d="M325.64,361.64c37-37,113-69,176.42-52.47s95.58,52.47,95.58,52.47-40,37-86,49-88,5-102,0-40-13-62-31Z"></path> <path class="cls-2" d="M459.14,420.81c-24.56,0-43.23-4.2-50.68-6.87l-4.25-1.5c-14.36-5-38.39-13.4-58.79-30.09l-25-20.45,2.73-2.73c19.58-19.57,48.61-36.76,79.67-47.15,24.77-8.29,62.25-16.1,100.11-6.23,63.7,16.61,96,52,97.31,53.52l2.3,2.56L600,364.21c-1.66,1.54-41.18,37.74-87.49,49.82a212,212,0,0,1-53.38,6.78M330.89,361.42l19,15.52c19.44,15.91,41.84,23.73,56.66,28.9l4.3,1.51c10.91,3.89,52.68,12.24,99.94-.09,37.93-9.89,72.13-37.5,81.8-45.8-8.6-8.35-39.49-35.37-91.38-48.89C442.29,297.21,369.4,325,330.89,361.42"></path> <path class="cls-1" d="M133.29,555s133-54,136-63a32.37,32.37,0,0,0,1.16-6.71,63.35,63.35,0,0,0-20.21-52c-66.68-62.18-60-130.26-60-130.26,11-122,135.5-133.5,135.5-133.5s26.22-4.67,65.5,19.5c15.73,9.68,25,21,32,36a108.23,108.23,0,0,1,3,15.29c2,16.71,9.6,20.86,21,25.71l25,8c6,2.8,5.21,13.44.89,18.41l-2.78,3.2c-3.3,3.79-6.91,7.69-6.1,12.4.67,4,5,7,10,10,0,0,10.93.68,4.47,11.84L469.29,339a12.31,12.31,0,0,0,5.26,1.36c8.33.31,11.31,9.28,8.74,13.64l-2.09.6a8,8,0,0,0-5.3,10.64,5.21,5.21,0,0,0,.39.76l5,7c8.14,13.38,8.54,25.62-4,35-7.18,5.37-11.16,7.58-22,11-36.5,11.5-44,14-78.5,128.5"></path> <path class="cls-2" d="M134.61,558.23,132,551.74c61.18-24.84,128.63-54.57,134.08-61.14A30.7,30.7,0,0,0,267,485a59.46,59.46,0,0,0-19.11-49.16c-35-32.69-49.79-67-56-90.1-6.74-25.12-5.15-42.34-5.08-43.06,5.82-64.51,43.26-98.26,73.65-115.21,32-17.86,62.31-21.16,64.88-21.42s29-3.89,67.79,20c15.36,9.45,25.65,21,33.34,37.5l.13.28.08.29a109.89,109.89,0,0,1,3.12,15.79c1.75,14.84,7.94,18.23,18.72,22.84l25.27,8.12a11.08,11.08,0,0,1,6,8.09,19.4,19.4,0,0,1-3.92,15.78l-3.19,3.67c-2.77,3.17-5.38,6.17-4.89,9,.41,2.39,4,5,7.72,7.2,1.88.3,5.9,1.34,7.85,5,1.73,3.23,1.22,7.27-1.52,12l-.24.42-5.17,5a13,13,0,0,1,9.6,6.76c2.17,4,2.3,8.67.34,12l-.71,1.2-3.44,1a4.67,4.67,0,0,0-2.93,2.47,4.14,4.14,0,0,0-.11,3.44,2.1,2.1,0,0,0,.09.2l5.07,7.11c12.43,20.42,4.2,32.82-4.89,39.62-7.41,5.54-11.78,8-23,11.54-18.07,5.7-28,8.83-38.13,24.21s-20,42-38.07,102l-6.7-2C407.55,433.27,415,428,454.24,415.65c10.46-3.3,14-5.3,21-10.46,10.1-7.55,11.11-17.17,3.17-30.27l-5-7a8.55,8.55,0,0,1-.67-1.29,11.19,11.19,0,0,1,.24-9.18,11.68,11.68,0,0,1,7.32-6.18l.4-.11a6.58,6.58,0,0,0-.81-4,6.11,6.11,0,0,0-5.41-3.28,15.72,15.72,0,0,1-6.75-1.75l-4.3-2.25L476,327.66c1.39-2.53,1.53-4.12,1.18-4.77-.48-.9-2.36-1.37-3.06-1.41l-.85-.05-.73-.44c-5.37-3.22-10.7-6.84-11.65-12.41-1-6.15,3.14-11,6.51-14.82l3.18-3.66a12.51,12.51,0,0,0,2.35-9.74,4.52,4.52,0,0,0-1.92-3.12l-25-8C433.77,264,425,258.94,422.84,240.69A102.61,102.61,0,0,0,420,226.19c-7.16-15.22-16.3-25.47-30.53-34.22-19.6-12.06-35.72-16.59-45.78-18.27-10.88-1.82-17.22-.78-17.28-.77l-.28,0c-.31,0-31,3.06-62.46,20.69-18.37,10.28-33.45,23.46-44.8,39.17-14.19,19.62-22.63,43.33-25.07,70.47,0,.19-1.53,17,5,40.92,6,22.09,20.18,55,53.9,86.46a66.42,66.42,0,0,1,21.3,54.92,34.8,34.8,0,0,1-1.33,7.49c-.89,2.66-2.37,7.11-71,37-33.28,14.47-66.62,28-67,28.16"></path> <path class="cls-2" d="M380.69,547.82l-6.8-1.66c14.69-60.26.13-106.34-14.67-134.38-16.09-30.48-35.94-46.91-36.14-47.08l4.42-5.42c.85.69,21,17.31,37.76,48.95,15.45,29.16,30.67,77.05,15.43,139.59"></path> <path class="cls-2" d="M368.38,264.05h0c-1.58-1.23-.89-4,.42-5.56,3.57-4.13,9.92-11.43,18.51-17.38a26,26,0,0,1,26.61-2.31,2.31,2.31,0,0,1,.94,3.36l-1.33,2a2.3,2.3,0,0,1-2.87.83,19.19,19.19,0,0,0-19.36,1.87,85.24,85.24,0,0,0-18.19,16.66,3.38,3.38,0,0,1-4.72.53"></path> <path class="cls-3" d="M369.9,239.46s19.1-27,38.79-36"></path> <path class="cls-2" d="M373.77,428.93c-3.27,0-4.41-.63-5.32-1.91-2-2.85-4.18-6.57-6.46-10.5-3.41-5.9-7.27-12.59-11.33-17.23-1.66-1.9-6-1.83-9.49-.92a98.21,98.21,0,0,1-24.54,3.49c-23.94,0-31.86-12.31-33.29-15-16.41-20.33-21.74-34.54-16.28-43.45,7.45-12.15,31.26-7.47,34-6.9l-1.46,6.85c-5.57-1.18-22.41-3-26.53,3.71-2.08,3.39-2.76,12.53,16,35.66l.28.35.18.41c.35.73,9.53,18.55,49.94,8.06,7-1.83,13.22-.68,16.51,3.08,4.51,5.15,8.55,12.16,12.12,18.34,1.91,3.31,3.73,6.46,5.39,8.92,3.19.06,12.83-1.19,22.18-2.42,17.44-2.29,41.33-5.43,63.58-6l.19,7c-21.89.59-45.56,3.71-62.85,6-12.38,1.63-19,2.46-22.77,2.46"></path> <path class="cls-1" d="M326.29,361c-37-37-69-113-52.47-176.42S326.29,89,326.29,89s37,40,49,86,5,88,0,102-13,40-31,62Z"></path> <path class="cls-2" d="M326.55,366.2l-2.73-2.73c-19.57-19.57-36.76-48.61-47.15-79.67-8.29-24.77-16.1-62.24-6.22-100.11,16.61-63.7,52-96,53.52-97.31l2.57-2.3,2.34,2.53c1.54,1.66,37.73,41.18,49.82,87.49,12.84,49.21,4.29,91.8-.09,104.06-.47,1.32-1,2.74-1.5,4.26-5,14.36-13.4,38.38-30.09,58.78Zm-.44-272.12c-8.35,8.61-35.37,39.5-48.9,91.38-15.35,58.88,12.47,131.77,48.85,170.28l15.52-19c15.91-19.44,23.73-41.84,28.9-56.66.54-1.53,1-3,1.51-4.3,3.89-10.91,12.24-52.68-.09-99.94-9.88-37.88-37.5-72.12-45.8-81.79"></path> <path class="cls-1" d="M325.27,360.69c-52.33,0-128.69-31.11-161.84-87.65s-30.49-104.69-30.49-104.69,54.45,2.12,95.46,26.16,65.76,58.69,72.13,72.13,19.09,37.48,21.92,65.76Z"></path> <path class="cls-2" d="M329.13,364.19h-3.87c-27.68,0-60.37-8.38-89.67-23-23.38-11.65-55.4-32.63-75.19-66.39-33.3-56.79-31.08-104.64-31-106.65l.19-3.44,3.44.13c2.26.09,55.8,2.43,97.09,26.64,43.88,25.72,67.95,61.88,73.52,73.65.6,1.26,1.25,2.62,2,4.06,6.61,13.7,17.67,36.62,20.29,62.85ZM136.4,172.09c.18,12,2.92,52.94,30,99.19,30.78,52.49,102,84.36,155,85.86L319,332.75c-2.5-25-12.81-46.36-19.63-60.5-.7-1.46-1.37-2.83-2-4.11-3.08-6.51-10.61-18.13-22.5-31.23a209.05,209.05,0,0,0-48.23-39.37c-33.78-19.8-77.51-24.48-90.22-25.45"></path> <path class="cls-1" d="M326.64,361.33c-37,37-113,69-176.42,52.47s-95.58-52.47-95.58-52.47,40-37,86-49,88-5,102,0,40,13,62,31Z"></path> <path class="cls-2" d="M186.6,421.8a147.49,147.49,0,0,1-37.26-4.62c-63.7-16.61-96-52-97.31-53.52l-2.3-2.56,2.53-2.34c1.66-1.53,41.18-37.73,87.49-49.82,49.21-12.84,91.8-4.29,104.06.09l4.25,1.49c14.36,5,38.39,13.4,58.79,30.09l25,20.45-2.73,2.73c-19.58,19.57-48.61,36.76-79.67,47.15-16.52,5.53-38.68,10.84-62.85,10.84M59.72,361.52c8.6,8.35,39.5,35.37,91.38,48.9,58.88,15.35,131.77-12.47,170.28-48.86l-19-15.52c-19.44-15.91-41.84-23.73-56.66-28.9l-4.3-1.51c-10.91-3.89-52.67-12.24-99.94.09-37.93,9.89-72.13,37.5-81.8,45.8"></path> <path class="cls-1" d="M325.34,362.36c0,52.33-31.11,128.69-87.65,161.84S133,554.69,133,554.69s2.12-54.45,26.16-95.46,58.69-65.76,72.13-72.12,37.48-19.09,65.76-21.92Z"></path> <path class="cls-2" d="M136,558.25c-1.84,0-2.93-.05-3.2-.07l-3.44-.19.13-3.44c.09-2.26,2.43-55.8,26.64-97.09,25.72-43.88,61.88-67.95,73.65-73.52l4.06-1.95c13.7-6.61,36.62-17.67,62.85-20.29l32.13-3.21v3.87c0,27.68-8.38,60.37-23,89.67-11.65,23.38-32.63,55.4-66.38,75.19-49.16,28.83-91.62,31-103.45,31m185.77-192-24.38,2.44c-25,2.5-46.36,12.81-60.5,19.63l-4.11,2c-6.51,3.08-18.13,10.61-31.23,22.5A209.06,209.06,0,0,0,162.19,461c-19.8,33.78-24.48,77.51-25.45,90.22,12-.18,52.93-2.92,99.19-30,52.49-30.78,84.36-102,85.86-155"></path> <path class="cls-2" d="M388.88,288.48q-2.94,0-6.1-.25l.54-7c11.82.92,20.93-1.07,26.33-5.75a14.81,14.81,0,0,0,5.28-9.46l7,.35a21.8,21.8,0,0,1-7.5,14.24c-5.9,5.22-14.48,7.85-25.54,7.85"></path> <path class="cls-1" d="M344.29,409a9,9,0,1,1-9-9,9,9,0,0,1,9,9"></path> <circle class="cls-4" cx="335.29" cy="408.99" r="9"></circle> <path class="cls-2" d="M415.05,276c-8.3-4.22-12.33-17.37-12.76-18.85l6.72-2-3.36,1,3.36-1c.95,3.23,4.45,12.15,9.21,14.57Z"></path> <path class="cls-3" d="M420.29,270s-4,10-13,11"></path> <circle class="cls-3" cx="326.29" cy="363.99" r="274.5"></circle> <line class="cls-1" x1="376.79" y1="547.49" x2="351.79" y2="637.49"></line> <rect class="cls-2" x="317.59" y="588.99" width="93.41" height="7" transform="translate(-304.07 784.95) rotate(-74.48)"></rect> <path class="cls-1" d="M23.36,360.49a9,9,0,1,1-9-9,9,9,0,0,1,9,9"></path> <circle class="cls-3" cx="14.36" cy="360.49" r="9"></circle> <path class="cls-1" d="M646.86,360.49a9,9,0,1,1-9-9,9,9,0,0,1,9,9"></path> <circle class="cls-3" cx="637.86" cy="360.49" r="9"></circle> <path d="M37.15,215.84l11.91,16.08-2.35,3.95L7.85,183H5.75l-.7-.41,4.51-7.58,67.91,9.05-4.28,7.19-19.86-2.69Zm-14.9-31.47q-6.56-.76-9.17-.95l21.69,29.22,14.58-24.53Z"></path> <path d="M100.27,157.81l-43-46,5.85-5.47,19.17,20.52,3.62-3.38-.49-38,3.95-3.69L89.87,119l21.91,3.54q6,.78,11.77,1.26t8.48.64l2.74,0,.55.59-7.17,6.7-39.94-5.3-3.35,3.13,21.26,22.75Z"></path> <path d="M161.51,86.13l1.37,20-4.1,2.06L154.5,42.71l-1.77-1.12-.36-.72,7.88-4,52.33,44.21-7.48,3.76-15.28-13Zm4.4-34.54q-5.12-4.17-7.22-5.74l2.53,36.3,25.49-12.81Z"></path> <path d="M304,57.44l.84.68L307.43,77l-4.09.67-.93-.67a74.19,74.19,0,0,0-1.66-7.62q-1-3.71-1.68-5.52l-.65-1.72L247.1,70.62a66.49,66.49,0,0,0,1,15.35l-.67.93-4.09.67-3.62-18.74.58-.91,5.15-.85q4.12-1.59,5.63-11.23t-1.57-28.47q-.87-5.33-1.95-10.21t-1.8-7l-.63-2.18.67-.93L286.72.27l9.59,58.44ZM253.83,24.91q5.25,32-.95,40.92L288.41,60l-9-54.71-28.07,4.6Z"></path> <path d="M341.26,62.48,349.32,0,389,5.12l-.6,4.64-.81.62q-4.16-2.26-14.51-3.6L356.79,4.68l-3.23,25.08,26.15,3.37.45.7-.4,3.12-26.69-3.44-3.4,26.33,17.23,2.22a77.66,77.66,0,0,0,8.35.67,28.46,28.46,0,0,0,5.11-.2l1.49-.26.62.81-.6,4.64Z"></path> <path d="M473.72,102.37l16.61-53.13-.17-.48L450.41,89.53l-5-2.32-.65-1.79L449,29.89l-.44.09L419.63,77.17l-3.92-1.82,25-40.59q2.15-3.56,3.88-6.83t2.32-4.78l.64-1.59,1-.43,8.81,4.1-4.11,55.08L491.6,41.2l8.65,4-19,60.64Z"></path> <polygon points="516.34 133.21 511.48 128.53 555.16 83.13 560.93 88.69 524.05 127.01 588.56 115.27 593.42 119.95 549.74 165.35 543.9 159.73 580.78 121.4 516.34 133.21"></polygon> <path d="M593.58,196.37l12.15.5q-2.78-7.52-1.06-13.55a15.62,15.62,0,0,1,7.84-9.47,15.23,15.23,0,0,1,14.26-.89q7.12,3.12,12.32,12.38l10.18,18.13-54.93,30.86-3.92-7,24.25-13.62-5.64-10-33-1.92L572,194.55l.71-.4a189.2,189.2,0,0,0,20.86,2.22m23-15.21a13.22,13.22,0,0,0-6.22,6.75,14,14,0,0,0-.14,9.11h.2l-.05.65a25,25,0,0,0,1.93,4.18l5.64,10,24.09-13.53-5.64-10q-3.62-6.44-8.85-8.4t-11,1.25"></path> <polygon points="1.05 452.89 0.15 449.75 28.06 441.77 29.09 445.38 15.8 461.37 35.54 467.93 36.55 471.48 8.65 479.45 7.75 476.31 30.77 469.73 12.49 463.64 11.79 461.2 24.07 446.31 1.05 452.89"></polygon> <polygon class="cls-5" points="1.05 452.89 0.15 449.75 28.06 441.77 29.09 445.38 15.8 461.37 35.54 467.93 36.55 471.48 8.65 479.45 7.75 476.31 30.77 469.73 12.49 463.64 11.79 461.2 24.07 446.31 1.05 452.89"></polygon> <path d="M22.06,504.33q1.76-5.82,8.1-8.82t12-.68a16.23,16.23,0,0,1,9.22,19.45q-1.76,5.82-8.1,8.82t-12,.68a16.23,16.23,0,0,1-9.22-19.45m10.38,16.32a11.41,11.41,0,0,0,9.32-.67,11.42,11.42,0,0,0,6.42-6.79,11.76,11.76,0,0,0-.7-9A11.86,11.86,0,0,0,41,498a11.36,11.36,0,0,0-9.33.64,11.36,11.36,0,0,0-6.4,6.82,12.66,12.66,0,0,0,7.21,15.21"></path> <path class="cls-5" d="M22.06,504.33q1.76-5.82,8.1-8.82t12-.68a16.23,16.23,0,0,1,9.22,19.45q-1.76,5.82-8.1,8.82t-12,.68a16.23,16.23,0,0,1-9.22-19.45Zm10.38,16.32a11.41,11.41,0,0,0,9.32-.67,11.42,11.42,0,0,0,6.42-6.79,11.76,11.76,0,0,0-.7-9A11.86,11.86,0,0,0,41,498a11.36,11.36,0,0,0-9.33.64,11.36,11.36,0,0,0-6.4,6.82,12.66,12.66,0,0,0,7.21,15.21Z"></path> <path d="M67.94,541.82q-5.45,3.27-9.54,5.32a48.28,48.28,0,0,1-7.74,3.14,12.79,12.79,0,0,1-6.16.57,6.16,6.16,0,0,1-4-2.67,8.72,8.72,0,0,1-1.28-2.86l2.3-1.56a5.22,5.22,0,0,0,.85,1.9q2.14,3.15,8.64.89t17.64-9.32l11.49,16.9-24,16.31-1.9-2.8,21.35-14.51Z"></path> <path class="cls-5" d="M67.94,541.82q-5.45,3.27-9.54,5.32a48.28,48.28,0,0,1-7.74,3.14,12.79,12.79,0,0,1-6.16.57,6.16,6.16,0,0,1-4-2.67,8.72,8.72,0,0,1-1.28-2.86l2.3-1.56a5.22,5.22,0,0,0,.85,1.9q2.14,3.15,8.64.89t17.64-9.32l11.49,16.9-24,16.31-1.9-2.8,21.35-14.51Z"></path> <path d="M76.41,589.93q-.11-6.08,5-10.88t11.17-4.32a16.23,16.23,0,0,1,14.74,15.68q.11,6.07-5,10.88t-11.17,4.31a16.23,16.23,0,0,1-14.74-15.68m14.89,12.35A12.89,12.89,0,0,0,104,590.36a12.66,12.66,0,0,0-11.53-12.27A12.8,12.8,0,0,0,79.76,590a12.67,12.67,0,0,0,11.53,12.27"></path> <path class="cls-5" d="M76.41,589.93q-.11-6.08,5-10.88t11.17-4.32a16.23,16.23,0,0,1,14.74,15.68q.11,6.07-5,10.88t-11.17,4.31a16.23,16.23,0,0,1-14.74-15.68Zm14.89,12.35A12.89,12.89,0,0,0,104,590.36a12.66,12.66,0,0,0-11.53-12.27A12.8,12.8,0,0,0,79.76,590a12.67,12.67,0,0,0,11.53,12.27Z"></path> <path d="M103.7,632.81l-2.63-2L107.9,622l3,2.34a43.82,43.82,0,0,0,10.19-6.52A69.72,69.72,0,0,0,131,607.07l16.38,12.72-15.91,20.48,3.34,2.6L128,651.65l-2.67-2.08,4.93-6.35-21.58-16.76Zm28-21.31q-8.16,10.2-17.84,15.08l14.94,11.61,14-18Z"></path> <path class="cls-5" d="M103.7,632.81l-2.63-2L107.9,622l3,2.34a43.82,43.82,0,0,0,10.19-6.52A69.72,69.72,0,0,0,131,607.07l16.38,12.72-15.91,20.48,3.34,2.6L128,651.65l-2.67-2.08,4.93-6.35-21.58-16.76Zm28-21.31q-8.16,10.2-17.84,15.08l14.94,11.61,14-18Z"></path> <path d="M155.57,655.58q-2-5.75,1.4-11.89t9.3-7.54a16.23,16.23,0,0,1,18.85,10.38q2,5.75-1.41,11.89t-9.3,7.54a16.23,16.23,0,0,1-18.85-10.38m18,7.17a12.89,12.89,0,0,0,8.4-15.25,12.67,12.67,0,0,0-14.75-8.12,12.8,12.8,0,0,0-8.4,15.25,12.66,12.66,0,0,0,14.75,8.12"></path> <path class="cls-5" d="M155.57,655.58q-2-5.75,1.4-11.89t9.3-7.54a16.23,16.23,0,0,1,18.85,10.38q2,5.75-1.41,11.89t-9.3,7.54a16.23,16.23,0,0,1-18.85-10.38Zm18,7.17a12.89,12.89,0,0,0,8.4-15.25,12.67,12.67,0,0,0-14.75-8.12,12.8,12.8,0,0,0-8.4,15.25,12.66,12.66,0,0,0,14.75,8.12Z"></path> <path d="M201.22,666.41a15.33,15.33,0,0,1,5.27-7.3,13.74,13.74,0,0,1,7.26-2.78,18,18,0,0,1,7.51,1.15,15.2,15.2,0,0,1,7.39,5.27l-1.16,3.12a14.69,14.69,0,0,0-16.37-5.51q-4.56,1.59-6.65,7.2-2,5.38.29,9.53a12.88,12.88,0,0,0,7.05,5.92,17.37,17.37,0,0,0,9.26.93l-1.2,3.23a21,21,0,0,1-9.61-1.39,16,16,0,0,1-8.68-7.36q-2.9-5.21-.37-12"></path> <path class="cls-5" d="M201.22,666.41a15.33,15.33,0,0,1,5.27-7.3,13.74,13.74,0,0,1,7.26-2.78,18,18,0,0,1,7.51,1.15,15.2,15.2,0,0,1,7.39,5.27l-1.16,3.12a14.69,14.69,0,0,0-16.37-5.51q-4.56,1.59-6.65,7.2-2,5.38.29,9.53a12.88,12.88,0,0,0,7.05,5.92,17.37,17.37,0,0,0,9.26.93l-1.2,3.23a21,21,0,0,1-9.61-1.39,16,16,0,0,1-8.68-7.36Q198.69,673.21,201.22,666.41Z"></path> <polygon points="252.14 697.22 248.77 696.47 254.46 671.28 243.49 668.81 244.2 665.68 269.49 671.39 268.79 674.52 257.82 672.04 252.14 697.22"></polygon> <polygon class="cls-5" points="252.14 697.22 248.77 696.47 254.46 671.28 243.49 668.81 244.2 665.68 269.49 671.39 268.79 674.52 257.82 672.04 252.14 697.22"></polygon> <polygon points="287.35 703.16 284.4 702.93 286.66 674 290.09 674.26 288.26 697.71 309.68 675.79 312.64 676.02 310.38 704.95 307 704.69 308.83 681.25 287.35 703.16"></polygon> <polygon class="cls-5" points="287.35 703.16 284.4 702.93 286.66 674 290.09 674.26 288.26 697.71 309.68 675.79 312.64 676.02 310.38 704.95 307 704.69 308.83 681.25 287.35 703.16"></polygon> <polygon points="368.76 701.91 365.84 702.4 360.96 673.8 364.36 673.22 368.31 696.4 383.73 669.92 386.65 669.42 391.52 698.03 388.19 698.6 384.24 675.41 368.76 701.91"></polygon> <polygon class="cls-5" points="368.76 701.91 365.84 702.4 360.96 673.8 364.36 673.22 368.31 696.4 383.73 669.92 386.65 669.42 391.52 698.03 388.19 698.6 384.24 675.41 368.76 701.91"></polygon> <polygon points="447.59 680.83 444.43 682.19 433 655.52 436.16 654.16 441.12 665.72 447.29 663.08 451.67 647.52 455.34 645.95 450.45 663.56 468.15 672.02 464.43 673.62 448.38 666.09 442.38 668.66 447.59 680.83"></polygon> <polygon class="cls-5" points="447.59 680.83 444.43 682.19 433 655.52 436.16 654.16 441.12 665.72 447.29 663.08 451.67 647.52 455.34 645.95 450.45 663.56 468.15 672.02 464.43 673.62 448.38 666.09 442.38 668.66 447.59 680.83"></polygon> <path d="M477.36,641a14.33,14.33,0,0,1,7-12.2,13.76,13.76,0,0,1,11-1.85,16.54,16.54,0,0,1,11.54,18.52,13.76,13.76,0,0,1-6.52,9.08,14,14,0,0,1-7,2.26,14.49,14.49,0,0,1-6.54-1.23l10,16.06L494,673.43l-22.38-35.92,2.62-1.63Zm24.37-5.14a11.86,11.86,0,0,0-7.39-5.69,11,11,0,0,0-8.67,1.52,11.78,11.78,0,0,0-4.88,5.78,12.84,12.84,0,0,0-.74,7.27l4.16,6.67a12.83,12.83,0,0,0,6.85,2.54,11.78,11.78,0,0,0,7.34-1.83,11,11,0,0,0,5.23-7.1,11.92,11.92,0,0,0-1.89-9.15"></path> <path class="cls-5" d="M477.36,641a14.33,14.33,0,0,1,7-12.2,13.76,13.76,0,0,1,11-1.85,16.54,16.54,0,0,1,11.54,18.52,13.76,13.76,0,0,1-6.52,9.08,14,14,0,0,1-7,2.26,14.49,14.49,0,0,1-6.54-1.23l10,16.06L494,673.43l-22.38-35.92,2.62-1.63Zm24.37-5.14a11.86,11.86,0,0,0-7.39-5.69,11,11,0,0,0-8.67,1.52,11.78,11.78,0,0,0-4.88,5.78,12.84,12.84,0,0,0-.74,7.27l4.16,6.67a12.83,12.83,0,0,0,6.85,2.54,11.78,11.78,0,0,0,7.34-1.83,11,11,0,0,0,5.23-7.1A11.92,11.92,0,0,0,501.73,635.82Z"></path> <path d="M544.93,613.18a2.27,2.27,0,0,0,3.63.22,7.2,7.2,0,0,0,1.42-1.78l1.82,2.1a9.09,9.09,0,0,1-2,2.51q-3.48,3-6.72-.1a15.47,15.47,0,0,1-5.81,11.49,11.59,11.59,0,0,1-6.84,3,7.47,7.47,0,0,1-6.41-2.89q-3.24-3.75-1.89-7.92a17.2,17.2,0,0,1,5.38-7.64,33.38,33.38,0,0,1,7.74-5L534,605.69a8.1,8.1,0,0,0-5.86-3.08,9.52,9.52,0,0,0-6.67,2.73,26.33,26.33,0,0,0-6.52,8.35l-2.21-2.56a32.1,32.1,0,0,1,7-8.41q4.39-3.79,8.9-3.53t8.26,4.61ZM526.56,625.3a4.94,4.94,0,0,0,4.43,1.89,8.72,8.72,0,0,0,4.86-2.24,13.85,13.85,0,0,0,3.79-5.23,13.12,13.12,0,0,0,1-6.38l-3.48-4a34,34,0,0,0-7.33,4.74,14.4,14.4,0,0,0-4.25,5.71,5.15,5.15,0,0,0,1,5.54"></path> <path class="cls-5" d="M544.93,613.18a2.27,2.27,0,0,0,3.63.22,7.2,7.2,0,0,0,1.42-1.78l1.82,2.1a9.09,9.09,0,0,1-2,2.51q-3.48,3-6.72-.1a15.47,15.47,0,0,1-5.81,11.49,11.59,11.59,0,0,1-6.84,3,7.47,7.47,0,0,1-6.41-2.89q-3.24-3.75-1.89-7.92a17.2,17.2,0,0,1,5.38-7.64,33.38,33.38,0,0,1,7.74-5L534,605.69a8.1,8.1,0,0,0-5.86-3.08,9.52,9.52,0,0,0-6.67,2.73,26.33,26.33,0,0,0-6.52,8.35l-2.21-2.56a32.1,32.1,0,0,1,7-8.41q4.39-3.79,8.9-3.53t8.26,4.61ZM526.56,625.3a4.94,4.94,0,0,0,4.43,1.89,8.72,8.72,0,0,0,4.86-2.24,13.85,13.85,0,0,0,3.79-5.23,13.12,13.12,0,0,0,1-6.38l-3.48-4a34,34,0,0,0-7.33,4.74,14.4,14.4,0,0,0-4.25,5.71A5.15,5.15,0,0,0,526.56,625.3Z"></path> <path d="M554.62,590.87a15.32,15.32,0,0,1-5-7.49,13.75,13.75,0,0,1-.05-7.78A18,18,0,0,1,553.3,569a15.21,15.21,0,0,1,7.53-5.07l2.51,2.18a14.69,14.69,0,0,0-10.91,13.38q-.11,4.83,4.41,8.75,4.33,3.77,9,3.08a12.89,12.89,0,0,0,8-4.53,17.38,17.38,0,0,0,4.13-8.35l2.6,2.26a21,21,0,0,1-4.67,8.51,16,16,0,0,1-9.94,5.54q-5.9.88-11.37-3.87"></path> <path class="cls-5" d="M554.62,590.87a15.32,15.32,0,0,1-5-7.49,13.75,13.75,0,0,1-.05-7.78A18,18,0,0,1,553.3,569a15.21,15.21,0,0,1,7.53-5.07l2.51,2.18a14.69,14.69,0,0,0-10.91,13.38q-.11,4.83,4.41,8.75,4.33,3.77,9,3.08a12.89,12.89,0,0,0,8-4.53,17.38,17.38,0,0,0,4.13-8.35l2.6,2.26a21,21,0,0,1-4.67,8.51,16,16,0,0,1-9.94,5.54Q560.09,595.63,554.62,590.87Z"></path> <path d="M593.71,559.63q-5.87,1.58-11.77-2.21t-6.9-9.79a16.23,16.23,0,0,1,11.63-18.11q5.87-1.58,11.77,2.21t6.9,9.78a16.23,16.23,0,0,1-11.63,18.11m8.37-17.44a12.89,12.89,0,0,0-14.65-9.41,12.66,12.66,0,0,0-9.1,14.17A12.8,12.8,0,0,0,593,556.36a12.66,12.66,0,0,0,9.1-14.17"></path> <path class="cls-5" d="M593.71,559.63q-5.87,1.58-11.77-2.21t-6.9-9.79a16.23,16.23,0,0,1,11.63-18.11q5.87-1.58,11.77,2.21t6.9,9.78a16.23,16.23,0,0,1-11.63,18.11Zm8.37-17.44a12.89,12.89,0,0,0-14.65-9.41,12.66,12.66,0,0,0-9.1,14.17A12.8,12.8,0,0,0,593,556.36a12.66,12.66,0,0,0,9.1-14.17Z"></path> <polygon points="625.39 510.25 623.95 513.38 600.5 502.57 595.79 512.78 592.88 511.44 603.74 487.89 606.65 489.23 601.95 499.44 625.39 510.25"></polygon> <polygon class="cls-5" points="625.39 510.25 623.95 513.38 600.5 502.57 595.79 512.78 592.88 511.44 603.74 487.89 606.65 489.23 601.95 499.44 625.39 510.25"></polygon> <path d="M641.58,466.9l-3.64,12.79L610,471.76l.94-3.31,10.18,2.89,2.7-9.48a11.91,11.91,0,0,1,4.7-7,8.76,8.76,0,0,1,12.74,3.62,11.9,11.9,0,0,1,.3,8.45m5.54-19.48-.94,3.32-27.91-7.93.94-3.32Zm-23,24.82,11.8,3.36,2.58-9.07a9.53,9.53,0,0,0,0-6.11,5.38,5.38,0,0,0-3.78-3.31,5.27,5.27,0,0,0-4.93.86,9.68,9.68,0,0,0-3.15,5.2Z"></path> <path class="cls-5" d="M641.58,466.9l-3.64,12.79L610,471.76l.94-3.31,10.18,2.89,2.7-9.48a11.91,11.91,0,0,1,4.7-7,8.76,8.76,0,0,1,12.74,3.62A11.9,11.9,0,0,1,641.58,466.9Zm5.54-19.48-.94,3.32-27.91-7.93.94-3.32Zm-23,24.82,11.8,3.36,2.58-9.07a9.53,9.53,0,0,0,0-6.11,5.38,5.38,0,0,0-3.78-3.31,5.27,5.27,0,0,0-4.93.86,9.68,9.68,0,0,0-3.15,5.2Z"></path> </g> </g> </svg> 